<?xml version="1.0" encoding="UTF-8" ?>
<!DOCTYPE svg PUBLIC "-//W3C//DTD SVG 1.1//EN" "http://www.w3.org/Graphics/SVG/1.1/DTD/svg11.dtd">
<svg width="596pt" height="596pt" viewBox="0 0 596 596" version="1.1" xmlns="http://www.w3.org/2000/svg">
<path fill="#efefef" opacity="1.00" d=" M 0.00 0.00 L 596.00 0.00 L 596.00 596.00 L 0.00 596.00 L 0.00 0.00 M 301.28 159.29 C 294.13 167.33 289.99 177.53 286.84 187.69 C 283.91 197.18 284.27 207.22 284.17 217.04 C 284.16 227.95 286.96 238.57 290.10 248.93 C 291.55 255.83 294.42 262.27 296.98 268.81 C 295.13 270.18 293.26 271.54 291.64 273.19 C 293.72 272.62 295.66 271.56 297.79 271.16 C 301.14 272.46 304.25 274.90 308.02 274.68 C 315.99 274.80 323.97 272.73 331.05 269.11 C 339.72 265.21 345.82 257.11 349.61 248.63 C 354.39 236.40 355.91 223.07 355.36 210.01 C 355.10 197.49 353.65 184.55 347.54 173.38 C 341.97 162.91 333.71 152.68 321.73 149.61 C 313.49 147.90 306.77 154.07 301.28 159.29 M 191.72 293.90 C 189.76 295.68 189.85 298.58 189.15 300.95 C 181.40 300.03 173.87 304.25 167.75 308.64 C 164.80 309.58 162.39 311.62 160.58 314.09 C 163.03 313.20 165.43 312.17 167.80 311.08 C 171.87 310.94 175.85 309.99 179.90 309.66 C 180.49 309.91 181.68 310.41 182.27 310.67 C 179.54 313.95 176.45 317.28 175.63 321.62 C 173.67 324.86 171.49 328.19 170.99 332.02 C 169.81 337.06 167.28 341.55 164.63 345.93 C 162.14 349.03 159.08 351.57 155.85 353.85 C 160.51 353.87 165.07 352.92 169.37 351.10 C 170.05 355.26 170.46 359.45 171.26 363.59 C 163.57 365.00 155.89 366.80 148.04 366.86 C 145.90 366.86 144.02 365.73 141.97 365.31 C 139.61 365.53 137.51 366.77 135.27 367.44 C 130.63 367.16 125.98 367.12 121.35 367.62 C 121.79 366.80 122.24 366.00 122.70 365.20 C 121.41 364.32 120.11 363.45 118.81 362.59 C 117.00 365.73 116.01 369.73 112.74 371.72 C 110.22 373.44 107.56 375.24 106.12 378.01 C 108.21 380.78 109.76 383.82 109.59 387.40 C 111.17 385.86 112.66 384.24 114.06 382.54 C 117.47 382.69 120.89 382.92 124.26 383.54 L 124.32 385.50 L 125.31 385.21 L 124.42 386.02 C 127.65 386.16 130.83 385.50 134.01 385.07 C 137.99 384.38 141.76 386.57 145.73 386.27 C 152.27 385.86 158.89 385.39 165.40 386.44 C 169.35 387.03 173.35 386.94 177.32 387.27 C 174.37 387.82 171.56 388.86 168.68 389.63 C 171.55 389.99 174.43 390.16 177.32 390.34 L 176.92 390.81 C 177.60 390.80 178.95 390.78 179.62 390.77 C 185.09 391.59 190.65 391.28 196.06 390.26 C 198.99 390.85 201.55 392.64 204.39 393.56 C 208.39 395.26 212.79 395.43 217.06 395.79 C 215.08 394.87 213.18 393.55 210.98 393.30 C 211.36 392.86 212.12 391.97 212.50 391.52 C 216.70 392.93 221.24 392.29 225.51 391.58 C 233.42 391.22 240.26 396.56 248.13 396.51 C 247.10 396.16 246.07 395.83 245.03 395.53 C 245.25 394.63 245.54 393.75 245.89 392.91 C 247.84 393.54 249.86 394.18 251.94 393.85 C 259.46 392.73 266.95 396.00 274.44 394.53 C 279.63 393.57 284.81 395.26 290.02 394.96 C 301.56 394.19 313.19 393.50 324.42 390.55 C 324.51 390.01 324.68 388.93 324.77 388.39 L 325.01 388.03 C 326.91 388.20 329.03 388.98 330.71 387.66 C 334.25 385.45 338.53 385.11 342.28 383.38 C 344.30 383.32 345.19 381.26 345.95 379.71 C 346.34 382.45 346.98 386.95 350.62 386.85 C 360.02 388.37 369.58 386.67 379.04 386.69 C 383.00 386.64 386.94 389.01 390.82 388.06 C 398.64 383.21 408.46 387.18 416.64 383.44 C 417.35 383.41 418.07 383.38 418.79 383.33 C 419.04 383.69 419.54 384.40 419.79 384.75 C 420.84 384.16 421.73 383.04 423.04 383.06 C 431.54 382.73 440.08 383.45 448.58 382.74 C 447.31 377.59 441.46 376.93 437.55 374.61 C 440.80 373.21 444.29 372.46 447.77 373.48 C 449.32 374.15 450.97 375.17 452.73 374.55 C 460.07 372.30 467.89 371.71 475.52 372.50 C 473.24 373.03 470.94 373.35 468.66 373.80 C 472.10 374.05 475.55 373.65 478.87 372.72 C 483.22 371.37 487.90 373.29 492.19 371.60 C 499.27 370.28 506.69 371.27 513.57 368.91 C 512.67 367.59 511.62 366.27 509.94 366.03 C 506.85 362.31 501.39 362.30 497.79 359.27 C 496.09 357.96 494.71 356.18 492.72 355.30 C 490.86 355.16 489.03 355.61 487.21 355.89 C 483.66 352.55 478.55 354.89 474.40 355.51 C 468.89 353.88 462.95 354.27 457.43 352.57 C 453.12 350.98 448.83 353.19 444.52 353.47 C 441.10 354.05 438.11 351.94 435.04 350.88 C 431.02 348.85 427.79 353.60 423.95 353.88 C 420.55 353.65 417.29 352.54 413.92 352.14 C 409.23 351.42 404.41 351.57 399.79 350.48 C 397.95 349.42 397.25 347.03 395.38 346.02 C 390.63 339.77 383.02 336.21 375.42 334.90 C 375.36 334.12 375.31 333.34 375.27 332.57 C 372.05 332.18 368.88 331.33 365.62 331.55 C 362.80 331.98 360.58 329.85 358.21 328.72 L 357.77 328.14 C 356.16 328.88 354.54 329.59 352.89 330.25 C 345.96 330.49 339.44 333.30 333.30 336.31 C 329.80 338.13 325.74 336.93 321.99 336.92 C 317.43 336.46 312.81 338.32 308.34 336.99 C 303.67 335.31 299.83 339.54 295.92 341.35 C 290.82 341.80 285.68 341.09 280.57 341.60 C 279.52 337.30 279.25 332.88 279.09 328.47 C 284.20 330.20 290.68 332.20 295.48 328.71 C 290.59 329.60 286.06 327.73 282.31 324.70 C 280.90 322.50 279.48 320.30 278.10 318.08 C 277.84 315.72 276.52 313.67 275.25 311.74 C 270.57 304.84 264.04 299.37 256.96 295.06 C 254.81 293.71 252.41 292.80 249.90 292.43 C 246.13 291.86 242.84 289.84 239.30 288.60 L 238.77 288.08 C 238.45 288.11 237.82 288.16 237.50 288.18 C 225.69 286.85 213.08 287.29 202.24 292.64 C 202.25 291.79 202.30 290.95 202.39 290.12 C 205.62 286.20 209.13 282.50 213.01 279.20 C 204.60 281.57 196.54 286.47 191.72 293.90 Z" />
<path fill="#373737" opacity="1.00" d=" M 301.28 159.29 C 306.77 154.07 313.49 147.90 321.73 149.61 C 333.71 152.68 341.97 162.91 347.54 173.38 C 353.65 184.55 355.10 197.49 355.36 210.01 C 355.91 223.07 354.39 236.40 349.61 248.63 C 345.82 257.11 339.72 265.21 331.05 269.11 C 323.97 272.73 315.99 274.80 308.02 274.68 C 304.25 274.90 301.14 272.46 297.79 271.16 C 295.66 271.56 293.72 272.62 291.64 273.19 C 293.26 271.54 295.13 270.18 296.98 268.81 C 294.42 262.27 291.55 255.83 290.10 248.93 C 286.96 238.57 284.16 227.95 284.17 217.04 C 284.27 207.22 283.91 197.18 286.84 187.69 C 289.99 177.53 294.13 167.33 301.28 159.29 M 313.37 151.24 C 306.25 154.81 300.49 160.77 296.64 167.69 C 289.88 179.64 285.41 193.19 285.55 207.02 C 284.95 217.31 285.71 227.67 288.27 237.67 C 291.31 248.32 293.79 259.24 298.83 269.18 C 302.96 273.63 309.74 273.20 315.28 272.58 C 325.42 270.85 335.88 266.60 342.17 258.09 C 350.33 247.93 352.71 234.61 353.88 221.98 C 354.09 205.53 354.36 187.98 345.97 173.22 C 341.72 165.47 336.32 157.89 328.42 153.53 C 324.03 150.72 318.36 149.17 313.37 151.24 Z" />
<path fill="#fdfdfd" opacity="1.00" d=" M 313.37 151.24 C 318.36 149.17 324.03 150.72 328.42 153.53 C 336.32 157.89 341.72 165.47 345.97 173.22 C 354.36 187.98 354.09 205.53 353.88 221.98 C 352.71 234.61 350.33 247.93 342.17 258.09 C 335.88 266.60 325.42 270.85 315.28 272.58 C 309.74 273.20 302.96 273.63 298.83 269.18 C 293.79 259.24 291.31 248.32 288.27 237.67 C 285.71 227.67 284.95 217.31 285.55 207.02 C 285.41 193.19 289.88 179.64 296.64 167.69 C 300.49 160.77 306.25 154.81 313.37 151.24 M 317.07 176.02 C 317.30 177.22 317.57 178.42 317.88 179.62 C 318.62 179.45 320.10 179.11 320.84 178.95 C 322.24 177.94 321.16 176.19 321.13 174.84 C 319.75 175.15 318.22 175.12 317.07 176.02 M 316.76 193.94 C 318.01 194.66 319.19 195.66 320.68 195.82 C 321.77 194.82 321.66 193.26 321.97 191.94 C 319.86 191.40 318.12 192.41 316.76 193.94 M 317.97 208.83 C 319.38 209.39 321.05 211.19 322.34 209.44 C 323.82 207.54 321.33 206.20 320.04 205.24 C 319.34 206.43 318.65 207.63 317.97 208.83 M 318.74 221.79 C 317.42 223.44 319.69 226.81 321.75 225.77 C 323.65 224.64 321.97 222.34 321.97 220.67 C 320.87 220.99 319.80 221.36 318.74 221.79 M 320.16 232.92 C 320.26 234.52 320.21 236.13 319.99 237.73 C 321.26 237.67 322.54 237.61 323.82 237.55 C 323.81 236.46 323.77 235.38 323.69 234.30 C 322.81 233.31 321.30 233.40 320.16 232.92 M 320.15 246.08 C 320.13 247.77 320.10 249.46 320.08 251.16 C 321.57 250.73 323.13 250.60 324.69 250.64 C 324.68 249.54 324.64 248.45 324.55 247.36 C 323.65 245.82 321.61 246.41 320.15 246.08 Z" />
<path fill="#898989" opacity="1.00" d=" M 317.07 176.02 C 318.22 175.12 319.75 175.15 321.13 174.84 C 321.16 176.19 322.24 177.94 320.84 178.95 C 320.10 179.11 318.62 179.45 317.88 179.62 C 317.57 178.42 317.30 177.22 317.07 176.02 Z" />
<path fill="#6d6d6d" opacity="1.00" d=" M 316.76 193.94 C 318.12 192.41 319.86 191.40 321.97 191.94 C 321.66 193.26 321.77 194.82 320.68 195.82 C 319.19 195.66 318.01 194.66 316.76 193.94 Z" />
<path fill="#7a7a7a" opacity="1.00" d=" M 317.97 208.83 C 318.65 207.63 319.34 206.43 320.04 205.24 C 321.33 206.20 323.82 207.54 322.34 209.44 C 321.05 211.19 319.38 209.39 317.97 208.83 Z" />
<path fill="#8f8f8f" opacity="1.00" d=" M 318.74 221.79 C 319.80 221.36 320.87 220.99 321.97 220.67 C 321.97 222.34 323.65 224.64 321.75 225.77 C 319.69 226.81 317.42 223.44 318.74 221.79 Z" />
<path fill="#939393" opacity="1.00" d=" M 320.16 232.92 C 321.30 233.40 322.81 233.31 323.69 234.30 C 323.77 235.38 323.81 236.46 323.82 237.55 C 322.54 237.61 321.26 237.67 319.99 237.73 C 320.21 236.13 320.26 234.52 320.16 232.92 Z" />
<path fill="#919191" opacity="1.00" d=" M 320.15 246.08 C 321.61 246.41 323.65 245.82 324.55 247.36 C 324.64 248.45 324.68 249.54 324.69 250.64 C 323.13 250.60 321.57 250.73 320.08 251.16 C 320.10 249.46 320.13 247.77 320.15 246.08 Z" />
<path fill="#393939" opacity="1.00" d=" M 191.72 293.90 C 196.54 286.47 204.60 281.57 213.01 279.20 C 209.13 282.50 205.62 286.20 202.39 290.12 C 203.37 287.72 204.86 285.57 206.19 283.35 C 200.62 285.77 196.28 290.04 191.72 293.90 Z" />
<path fill="#8f8f8f" opacity="1.00" d=" M 191.72 293.90 C 196.28 290.04 200.62 285.77 206.19 283.35 C 204.86 285.57 203.37 287.72 202.39 290.12 C 202.30 290.95 202.25 291.79 202.24 292.64 C 207.95 291.53 213.51 289.59 219.34 289.16 C 225.39 288.68 231.47 288.87 237.50 288.18 C 237.82 288.16 238.45 288.11 238.77 288.08 L 239.30 288.60 C 241.09 290.66 243.48 292.00 245.91 293.19 C 255.68 298.28 263.91 305.73 271.53 313.58 C 271.03 311.92 270.54 310.25 270.08 308.58 C 273.30 312.07 275.92 316.03 278.37 320.09 C 278.30 319.58 278.17 318.58 278.10 318.08 C 279.48 320.30 280.90 322.50 282.31 324.70 C 283.19 326.13 284.04 327.59 284.90 329.04 C 282.69 328.41 280.50 327.74 278.31 327.05 C 277.93 334.05 278.39 341.22 281.54 347.61 C 281.69 347.98 281.99 348.74 282.14 349.12 C 280.53 348.12 278.90 347.18 277.28 346.22 C 277.31 347.65 277.35 349.08 277.35 350.51 C 276.78 352.73 276.09 354.93 275.42 357.12 C 274.25 351.71 274.48 345.48 270.37 341.24 C 271.18 346.93 273.23 352.36 273.96 358.06 C 274.57 362.22 271.76 365.88 271.78 369.99 C 271.74 372.20 271.95 374.41 272.10 376.62 C 267.13 372.91 265.27 366.75 261.11 362.32 C 262.18 365.95 263.82 369.39 266.06 372.46 C 262.39 370.74 258.57 369.39 254.63 368.49 C 251.54 362.10 248.65 354.77 241.89 351.41 C 244.27 355.48 247.42 359.02 249.95 362.98 C 252.46 366.87 253.50 371.44 254.40 375.91 C 253.21 374.84 252.03 373.77 250.86 372.69 C 251.90 376.07 252.64 379.53 253.07 383.04 C 250.01 377.67 249.16 371.50 248.36 365.47 C 246.89 373.88 246.33 382.50 242.97 390.47 C 241.42 389.67 239.85 388.88 238.29 388.10 C 239.91 390.02 241.49 391.97 243.04 393.95 C 246.37 388.72 247.78 382.69 248.91 376.68 C 251.02 382.28 247.76 387.72 245.89 392.91 C 245.54 393.75 245.25 394.63 245.03 395.53 C 241.77 394.47 238.28 393.70 235.55 391.50 C 232.15 388.82 228.80 386.08 225.09 383.84 C 227.48 386.37 230.01 388.77 232.43 391.28 C 226.28 389.77 220.17 387.88 213.82 387.46 C 210.92 387.08 207.83 387.21 205.14 385.96 C 203.05 383.91 201.63 381.31 199.89 378.98 C 201.25 384.35 204.31 389.15 209.00 392.20 C 208.08 390.65 207.13 389.12 206.18 387.59 C 212.38 388.49 218.74 388.62 224.66 390.89 C 219.75 391.76 214.79 391.12 209.93 390.30 C 210.78 390.71 211.63 391.12 212.50 391.52 C 212.12 391.97 211.36 392.86 210.98 393.30 C 205.27 393.33 200.11 390.53 195.33 387.70 C 190.29 384.56 185.80 380.47 182.21 375.74 C 179.17 371.73 179.71 366.42 179.10 361.70 C 177.70 367.72 179.34 373.75 180.93 379.56 C 181.30 379.24 182.05 378.62 182.43 378.30 C 186.08 382.32 190.26 385.80 194.42 389.28 C 189.52 390.09 184.57 390.50 179.62 390.77 C 178.95 390.78 177.60 390.80 176.92 390.81 L 177.32 390.34 C 178.79 388.60 180.45 387.04 182.08 385.45 C 183.40 386.45 184.74 387.46 186.08 388.46 C 185.12 385.94 184.16 383.43 183.24 380.91 C 182.57 381.11 181.22 381.50 180.55 381.70 C 179.90 380.85 179.25 380.00 178.63 379.15 C 174.08 368.45 169.46 356.78 171.66 344.96 C 170.56 346.76 169.75 348.90 167.99 350.17 C 165.75 351.38 163.22 351.88 160.80 352.57 C 162.07 350.35 163.39 348.16 164.63 345.93 C 167.28 341.55 169.81 337.06 170.99 332.02 C 170.94 332.57 170.86 333.67 170.82 334.22 C 173.29 330.40 174.94 326.12 175.63 321.62 C 176.45 317.28 179.54 313.95 182.27 310.67 C 181.68 310.41 180.49 309.91 179.90 309.66 C 182.93 309.42 185.96 309.67 188.98 309.88 C 189.01 309.40 189.07 308.42 189.10 307.94 C 181.95 308.19 174.30 307.47 167.80 311.08 C 165.43 312.17 163.03 313.20 160.58 314.09 C 162.39 311.62 164.80 309.58 167.75 308.64 C 172.40 307.27 176.56 304.75 180.99 302.86 C 184.96 301.07 189.39 301.71 193.57 302.08 C 192.10 301.70 190.63 301.31 189.15 300.95 C 189.85 298.58 189.76 295.68 191.72 293.90 M 199.52 292.65 C 198.28 292.93 197.02 294.58 197.68 295.82 C 199.22 296.66 201.30 293.32 199.52 292.65 M 273.00 337.03 C 273.37 340.23 274.73 343.19 277.13 345.39 C 275.95 342.51 274.54 339.73 273.00 337.03 M 227.96 368.06 C 230.44 374.77 233.55 381.37 237.96 387.04 C 235.22 380.42 231.15 374.47 227.96 368.06 Z" />
<path fill="#393939" opacity="1.00" d=" M 202.24 292.64 C 213.08 287.29 225.69 286.85 237.50 288.18 C 231.47 288.87 225.39 288.68 219.34 289.16 C 213.51 289.59 207.95 291.53 202.24 292.64 Z" />
<path fill="#6d6d6d" opacity="1.00" d=" M 245.91 293.19 C 243.48 292.00 241.09 290.66 239.30 288.60 C 242.84 289.84 246.13 291.86 249.90 292.43 C 252.41 292.80 254.81 293.71 256.96 295.06 C 264.04 299.37 270.57 304.84 275.25 311.74 C 276.52 313.67 277.84 315.72 278.10 318.08 C 278.17 318.58 278.30 319.58 278.37 320.09 C 275.92 316.03 273.30 312.07 270.08 308.58 C 270.54 310.25 271.03 311.92 271.53 313.58 C 263.91 305.73 255.68 298.28 245.91 293.19 M 260.50 300.20 C 259.94 301.62 262.13 303.36 263.45 302.75 C 264.00 301.33 261.83 299.50 260.50 300.20 Z" />
<path fill="#555555" opacity="1.00" d=" M 199.52 292.65 C 201.30 293.32 199.22 296.66 197.68 295.82 C 197.02 294.58 198.28 292.93 199.52 292.65 Z" />
<path fill="#c7c7c7" opacity="1.00" d=" M 260.50 300.20 C 261.83 299.50 264.00 301.33 263.45 302.75 C 262.13 303.36 259.94 301.62 260.50 300.20 Z" />
<path fill="#393939" opacity="1.00" d=" M 167.75 308.64 C 173.87 304.25 181.40 300.03 189.15 300.95 C 190.63 301.31 192.10 301.70 193.57 302.08 C 189.39 301.71 184.96 301.07 180.99 302.86 C 176.56 304.75 172.40 307.27 167.75 308.64 Z" />
<path fill="#626262" opacity="1.00" d=" M 167.80 311.08 C 174.30 307.47 181.95 308.19 189.10 307.94 C 189.07 308.42 189.01 309.40 188.98 309.88 C 185.96 309.67 182.93 309.42 179.90 309.66 C 175.85 309.99 171.87 310.94 167.80 311.08 Z" />
<path fill="#767676" opacity="1.00" d=" M 175.63 321.62 C 174.94 326.12 173.29 330.40 170.82 334.22 C 170.86 333.67 170.94 332.57 170.99 332.02 C 171.49 328.19 173.67 324.86 175.63 321.62 Z" />
<path fill="#373737" opacity="1.00" d=" M 284.90 329.04 C 284.04 327.59 283.19 326.13 282.31 324.70 C 286.06 327.73 290.59 329.60 295.48 328.71 C 290.68 332.20 284.20 330.20 279.09 328.47 C 279.25 332.88 279.52 337.30 280.57 341.60 C 285.68 341.09 290.82 341.80 295.92 341.35 C 299.83 339.54 303.67 335.31 308.34 336.99 C 312.81 338.32 317.43 336.46 321.99 336.92 C 325.74 336.93 329.80 338.13 333.30 336.31 C 339.44 333.30 345.96 330.49 352.89 330.25 C 353.71 330.22 355.33 330.16 356.15 330.14 C 348.53 331.50 341.00 333.51 334.01 336.88 C 330.28 338.85 326.01 338.11 322.00 337.88 C 317.08 337.50 312.14 339.25 307.28 337.89 C 302.82 336.77 299.88 341.57 295.86 342.48 C 292.11 342.83 288.35 342.49 284.60 342.44 C 284.59 347.38 283.99 352.29 283.42 357.20 C 282.24 357.33 281.06 357.47 279.88 357.64 C 281.01 356.95 282.15 356.26 283.28 355.55 C 282.77 351.65 279.40 349.25 277.28 346.22 C 278.90 347.18 280.53 348.12 282.14 349.12 C 282.43 349.46 283.01 350.15 283.30 350.49 C 283.60 348.40 284.03 346.32 284.08 344.21 C 283.26 343.40 282.41 342.63 281.52 341.90 C 281.49 343.80 281.51 345.70 281.54 347.61 C 278.39 341.22 277.93 334.05 278.31 327.05 C 280.50 327.74 282.69 328.41 284.90 329.04 Z" />
<path fill="#c8c8c8" opacity="1.00" d=" M 352.89 330.25 C 354.54 329.59 356.16 328.88 357.77 328.14 L 358.21 328.72 C 359.25 329.99 360.28 331.45 361.91 331.99 C 364.67 333.06 367.79 332.07 370.54 333.20 C 372.01 333.72 373.42 334.39 374.84 335.05 C 373.73 336.16 372.71 337.35 371.52 338.37 C 368.98 338.86 366.37 338.39 363.81 338.32 C 364.74 336.74 365.67 335.17 366.59 333.59 C 358.77 338.88 355.37 348.15 351.57 356.38 C 353.93 353.31 356.63 350.13 360.77 349.82 C 359.47 348.73 358.01 347.92 356.39 347.44 C 360.21 347.00 364.05 346.92 367.88 347.31 C 363.05 349.69 358.93 353.22 355.63 357.46 C 354.57 358.69 353.54 359.95 352.55 361.25 C 352.00 360.06 351.48 358.87 350.99 357.66 C 351.93 360.87 349.90 363.54 348.05 365.92 C 344.38 369.26 341.01 373.00 338.67 377.40 C 341.55 375.11 344.09 372.44 346.45 369.63 C 346.35 371.21 346.23 372.79 346.14 374.37 C 346.05 376.15 346.00 377.92 345.95 379.71 C 345.19 381.26 344.30 383.32 342.28 383.38 C 339.28 383.72 336.30 384.21 333.31 384.56 C 335.21 382.20 337.22 379.93 338.87 377.38 C 334.80 380.50 332.04 384.97 327.89 388.02 C 327.31 384.09 327.53 379.53 324.36 376.58 C 318.42 370.43 312.07 364.23 304.03 360.95 C 311.69 366.13 319.10 371.89 324.93 379.12 C 327.38 381.54 326.38 385.32 325.01 388.03 L 324.77 388.39 C 318.86 387.85 313.69 391.42 307.89 391.75 C 299.28 392.27 290.66 393.84 282.02 392.89 C 277.46 392.33 272.88 393.18 268.33 392.68 C 266.42 392.47 265.57 390.48 264.36 389.27 C 267.30 389.07 270.25 388.99 273.19 388.97 C 273.19 388.49 273.17 387.52 273.16 387.03 C 270.40 387.01 267.64 387.00 264.88 387.00 C 264.88 385.72 264.88 384.45 264.89 383.18 C 268.27 383.16 271.65 383.16 275.04 383.17 L 275.02 381.90 C 271.73 381.80 268.44 381.70 265.15 381.58 C 265.15 381.06 265.16 380.02 265.17 379.50 C 275.12 378.15 285.13 377.54 295.18 377.53 C 289.45 376.12 283.54 375.97 277.68 375.69 C 280.37 374.18 283.14 372.00 286.43 372.53 C 292.82 372.72 298.95 375.25 305.37 374.87 C 302.91 373.82 300.42 372.87 297.88 372.06 C 298.11 371.55 298.56 370.53 298.79 370.03 C 294.98 371.41 290.93 371.75 286.93 371.19 C 282.20 370.34 278.35 373.65 274.61 375.97 C 273.82 372.91 272.44 369.64 273.66 366.49 C 274.77 364.13 276.59 362.21 277.93 359.99 C 277.91 359.67 277.87 359.05 277.84 358.73 C 278.52 358.36 279.20 358.00 279.88 357.64 C 281.06 357.47 282.24 357.33 283.42 357.20 C 283.99 352.29 284.59 347.38 284.60 342.44 C 288.35 342.49 292.11 342.83 295.86 342.48 C 299.88 341.57 302.82 336.77 307.28 337.89 C 312.14 339.25 317.08 337.50 322.00 337.88 C 326.01 338.11 330.28 338.85 334.01 336.88 C 341.00 333.51 348.53 331.50 356.15 330.14 C 355.33 330.16 353.71 330.22 352.89 330.25 M 315.70 339.43 C 321.93 343.49 329.70 343.91 336.46 346.82 C 336.46 346.41 336.46 345.60 336.46 345.19 C 337.31 344.89 338.18 344.60 339.04 344.31 C 330.82 345.29 323.70 340.21 315.70 339.43 M 299.26 341.84 C 303.23 343.96 307.85 343.57 312.19 343.77 C 308.16 341.83 303.67 341.43 299.26 341.84 M 340.80 344.01 C 341.85 346.73 343.56 349.10 345.55 351.21 C 345.95 350.62 346.75 349.45 347.14 348.87 C 345.06 347.21 342.99 345.52 340.80 344.01 M 285.58 355.04 C 287.82 357.09 290.86 357.41 293.76 357.61 C 291.87 355.00 288.45 355.18 285.58 355.04 M 300.40 369.22 C 301.97 371.49 304.54 372.22 307.19 372.22 C 305.32 370.45 302.88 369.64 300.40 369.22 Z" />
<path fill="#373737" opacity="1.00" d=" M 361.91 331.99 C 360.28 331.45 359.25 329.99 358.21 328.72 C 360.58 329.85 362.80 331.98 365.62 331.55 C 368.88 331.33 372.05 332.18 375.27 332.57 C 375.31 333.34 375.36 334.12 375.42 334.90 C 383.02 336.21 390.63 339.77 395.38 346.02 C 394.95 345.88 394.11 345.59 393.69 345.44 C 390.01 342.79 386.57 339.63 382.21 338.12 C 379.71 337.19 377.25 336.18 374.84 335.05 C 373.42 334.39 372.01 333.72 370.54 333.20 C 367.79 332.07 364.67 333.06 361.91 331.99 Z" />
<path fill="#777877" opacity="1.00" d=" M 351.57 356.38 C 355.37 348.15 358.77 338.88 366.59 333.59 C 365.67 335.17 364.74 336.74 363.81 338.32 C 366.37 338.39 368.98 338.86 371.52 338.37 C 372.71 337.35 373.73 336.16 374.84 335.05 C 373.79 337.79 372.70 340.51 371.64 343.24 C 374.73 343.11 377.82 342.94 380.92 342.79 C 381.35 341.23 381.77 339.68 382.21 338.12 C 386.57 339.63 390.01 342.79 393.69 345.44 C 391.20 344.81 388.70 344.24 386.21 343.61 C 384.32 344.53 382.43 345.46 380.56 346.40 C 381.71 347.69 382.85 348.97 384.01 350.27 C 380.91 351.68 378.89 354.48 376.45 356.73 C 373.62 357.88 370.73 358.89 368.07 360.41 C 365.66 362.18 363.35 364.09 361.03 365.98 C 363.94 364.56 366.85 363.11 369.83 361.83 C 370.48 362.58 371.12 363.37 371.75 364.15 C 370.23 365.20 368.50 366.05 367.33 367.52 C 366.87 369.29 367.24 371.14 367.29 372.94 C 366.47 372.47 365.65 372.00 364.84 371.54 C 364.48 369.94 364.12 368.35 363.77 366.75 C 362.12 369.35 360.46 371.94 358.84 374.56 C 356.65 373.58 354.48 372.59 352.33 371.54 C 351.83 373.11 351.37 374.72 350.70 376.23 C 348.93 376.68 347.57 375.11 346.14 374.37 C 346.23 372.79 346.35 371.21 346.45 369.63 C 344.09 372.44 341.55 375.11 338.67 377.40 C 341.01 373.00 344.38 369.26 348.05 365.92 C 347.89 366.31 347.57 367.08 347.42 367.46 C 348.36 366.90 349.30 366.34 350.25 365.79 C 350.73 366.86 351.21 367.93 351.70 369.00 C 351.95 366.41 352.17 363.82 352.55 361.25 C 353.54 359.95 354.57 358.69 355.63 357.46 C 360.19 354.66 363.92 350.85 367.88 347.31 C 364.05 346.92 360.21 347.00 356.39 347.44 C 358.01 347.92 359.47 348.73 360.77 349.82 C 356.63 350.13 353.93 353.31 351.57 356.38 M 361.31 340.16 C 360.47 342.03 359.54 343.85 358.55 345.63 C 362.38 345.20 366.57 344.17 370.05 346.43 C 370.32 344.31 370.68 342.20 371.07 340.10 C 367.82 340.13 364.56 340.10 361.31 340.16 Z" />
<path fill="#959595" opacity="1.00" d=" M 374.84 335.05 C 377.25 336.18 379.71 337.19 382.21 338.12 C 381.77 339.68 381.35 341.23 380.92 342.79 C 377.82 342.94 374.73 343.11 371.64 343.24 C 372.70 340.51 373.79 337.79 374.84 335.05 Z" />
<path fill="#373737" opacity="1.00" d=" M 273.00 337.03 C 274.54 339.73 275.95 342.51 277.13 345.39 C 274.73 343.19 273.37 340.23 273.00 337.03 Z" />
<path fill="#777877" opacity="1.00" d=" M 315.70 339.43 C 323.70 340.21 330.82 345.29 339.04 344.31 C 338.18 344.60 337.31 344.89 336.46 345.19 C 336.46 345.60 336.46 346.41 336.46 346.82 C 329.70 343.91 321.93 343.49 315.70 339.43 Z" />
<path fill="#c9c9c9" opacity="1.00" d=" M 361.31 340.16 C 364.56 340.10 367.82 340.13 371.07 340.10 C 370.68 342.20 370.32 344.31 370.05 346.43 C 366.57 344.17 362.38 345.20 358.55 345.63 C 359.54 343.85 360.47 342.03 361.31 340.16 Z" />
<path fill="#7a7a7a" opacity="1.00" d=" M 270.37 341.24 C 274.48 345.48 274.25 351.71 275.42 357.12 C 276.09 354.93 276.78 352.73 277.35 350.51 C 277.35 353.26 277.50 356.00 277.84 358.73 C 277.87 359.05 277.91 359.67 277.93 359.99 C 276.59 362.21 274.77 364.13 273.66 366.49 C 272.44 369.64 273.82 372.91 274.61 375.97 C 278.35 373.65 282.20 370.34 286.93 371.19 C 290.93 371.75 294.98 371.41 298.79 370.03 C 298.56 370.53 298.11 371.55 297.88 372.06 C 300.42 372.87 302.91 373.82 305.37 374.87 C 298.95 375.25 292.82 372.72 286.43 372.53 C 283.14 372.00 280.37 374.18 277.68 375.69 C 283.54 375.97 289.45 376.12 295.18 377.53 C 285.13 377.54 275.12 378.15 265.17 379.50 C 265.16 380.02 265.15 381.06 265.15 381.58 C 268.44 381.70 271.73 381.80 275.02 381.90 L 275.04 383.17 C 271.65 383.16 268.27 383.16 264.89 383.18 C 264.88 384.45 264.88 385.72 264.88 387.00 C 267.64 387.00 270.40 387.01 273.16 387.03 C 273.17 387.52 273.19 388.49 273.19 388.97 C 270.25 388.99 267.30 389.07 264.36 389.27 C 265.57 390.48 266.42 392.47 268.33 392.68 C 272.88 393.18 277.46 392.33 282.02 392.89 C 290.66 393.84 299.28 392.27 307.89 391.75 C 313.69 391.42 318.86 387.85 324.77 388.39 C 324.68 388.93 324.51 390.01 324.42 390.55 C 313.19 393.50 301.56 394.19 290.02 394.96 C 284.81 395.26 279.63 393.57 274.44 394.53 C 266.95 396.00 259.46 392.73 251.94 393.85 C 249.86 394.18 247.84 393.54 245.89 392.91 C 247.76 387.72 251.02 382.28 248.91 376.68 C 247.78 382.69 246.37 388.72 243.04 393.95 C 241.49 391.97 239.91 390.02 238.29 388.10 C 239.85 388.88 241.42 389.67 242.97 390.47 C 246.33 382.50 246.89 373.88 248.36 365.47 C 249.16 371.50 250.01 377.67 253.07 383.04 C 252.64 379.53 251.90 376.07 250.86 372.69 C 252.03 373.77 253.21 374.84 254.40 375.91 C 253.50 371.44 252.46 366.87 249.95 362.98 C 247.42 359.02 244.27 355.48 241.89 351.41 C 248.65 354.77 251.54 362.10 254.63 368.49 C 258.57 369.39 262.39 370.74 266.06 372.46 C 263.82 369.39 262.18 365.95 261.11 362.32 C 265.27 366.75 267.13 372.91 272.10 376.62 C 271.95 374.41 271.74 372.20 271.78 369.99 C 271.76 365.88 274.57 362.22 273.96 358.06 C 273.23 352.36 271.18 346.93 270.37 341.24 M 254.61 371.00 C 256.34 375.05 261.55 375.03 265.06 376.80 C 264.41 375.25 264.44 373.02 262.56 372.40 C 260.08 371.23 257.29 371.12 254.61 371.00 M 258.07 375.69 C 259.45 377.87 261.01 379.93 262.64 381.93 C 263.03 380.94 263.42 379.96 263.82 378.99 C 262.29 377.28 260.34 376.12 258.07 375.69 M 255.71 379.98 C 254.95 382.07 254.16 384.16 253.37 386.25 C 251.01 387.59 249.85 390.38 248.03 392.35 C 253.32 391.81 258.67 391.87 263.89 392.90 C 263.22 389.86 262.78 386.78 262.69 383.67 C 260.56 382.10 258.14 381.00 255.71 379.98 Z" />
<path fill="#909090" opacity="1.00" d=" M 299.26 341.84 C 303.67 341.43 308.16 341.83 312.19 343.77 C 307.85 343.57 303.23 343.96 299.26 341.84 Z" />
<path fill="#f9f9f9" opacity="1.00" d=" M 281.52 341.90 C 282.41 342.63 283.26 343.40 284.08 344.21 C 284.03 346.32 283.60 348.40 283.30 350.49 C 283.01 350.15 282.43 349.46 282.14 349.12 C 281.99 348.74 281.69 347.98 281.54 347.61 C 281.51 345.70 281.49 343.80 281.52 341.90 Z" />
<path fill="#6f6f6f" opacity="1.00" d=" M 380.56 346.40 C 382.43 345.46 384.32 344.53 386.21 343.61 C 388.70 344.24 391.20 344.81 393.69 345.44 C 394.11 345.59 394.95 345.88 395.38 346.02 C 397.25 347.03 397.95 349.42 399.79 350.48 C 404.41 351.57 409.23 351.42 413.92 352.14 C 417.29 352.54 420.55 353.65 423.95 353.88 C 427.79 353.60 431.02 348.85 435.04 350.88 C 438.11 351.94 441.10 354.05 444.52 353.47 C 448.83 353.19 453.12 350.98 457.43 352.57 C 462.95 354.27 468.89 353.88 474.40 355.51 C 477.64 357.67 481.41 356.79 484.80 355.48 C 485.45 359.02 486.28 362.58 488.00 365.78 C 486.27 366.50 487.14 369.11 488.88 369.03 C 489.66 369.19 490.46 369.34 491.27 369.49 C 497.82 370.34 504.35 368.66 510.91 368.62 C 510.58 367.75 510.25 366.89 509.94 366.03 C 511.62 366.27 512.67 367.59 513.57 368.91 C 506.69 371.27 499.27 370.28 492.19 371.60 C 488.71 371.05 485.23 370.51 481.71 370.31 C 481.33 368.91 480.95 367.52 480.57 366.12 C 480.35 367.60 480.14 369.08 479.93 370.57 C 473.93 370.30 467.89 370.42 461.94 371.26 C 457.20 371.90 452.56 373.16 447.77 373.48 C 444.29 372.46 440.80 373.21 437.55 374.61 C 441.46 376.93 447.31 377.59 448.58 382.74 C 440.08 383.45 431.54 382.73 423.04 383.06 C 421.73 383.04 420.84 384.16 419.79 384.75 C 419.54 384.40 419.04 383.69 418.79 383.33 C 418.07 383.38 417.35 383.41 416.64 383.44 C 410.73 383.47 404.82 383.80 398.94 384.30 C 395.45 384.52 392.32 386.23 388.93 386.86 C 384.26 386.55 379.72 384.78 374.98 385.26 C 366.87 385.97 358.71 385.91 350.62 386.85 C 346.98 386.95 346.34 382.45 345.95 379.71 C 346.00 377.92 346.05 376.15 346.14 374.37 C 347.57 375.11 348.93 376.68 350.70 376.23 C 351.37 374.72 351.83 373.11 352.33 371.54 C 354.48 372.59 356.65 373.58 358.84 374.56 C 360.46 371.94 362.12 369.35 363.77 366.75 C 364.12 368.35 364.48 369.94 364.84 371.54 C 365.65 372.00 366.47 372.47 367.29 372.94 C 367.24 371.14 366.87 369.29 367.33 367.52 C 368.50 366.05 370.23 365.20 371.75 364.15 C 371.12 363.37 370.48 362.58 369.83 361.83 C 369.39 361.47 368.51 360.77 368.07 360.41 C 370.73 358.89 373.62 357.88 376.45 356.73 C 378.89 354.48 380.91 351.68 384.01 350.27 C 382.85 348.97 381.71 347.69 380.56 346.40 M 399.59 353.83 C 399.34 357.59 399.18 361.36 399.08 365.13 C 394.73 365.02 390.39 365.09 386.05 365.04 C 384.45 362.35 382.23 360.14 380.11 357.87 C 381.58 361.19 383.83 364.05 386.34 366.65 C 393.71 366.04 401.15 366.59 408.47 367.51 C 413.35 368.09 418.22 371.72 423.11 369.30 C 423.82 369.99 424.55 370.68 425.28 371.38 C 423.88 372.94 422.36 374.43 421.33 376.27 C 421.06 377.93 421.05 379.62 420.96 381.31 C 429.43 380.74 437.95 381.78 446.40 380.90 C 443.83 379.21 440.95 378.14 438.22 376.79 C 435.41 374.79 433.96 371.58 432.07 368.82 C 431.41 367.52 429.44 367.52 428.41 368.34 C 423.70 367.17 418.80 369.73 414.25 367.75 C 409.81 366.10 405.08 365.61 400.40 365.19 C 400.80 361.38 400.91 357.48 399.59 353.83 Z" />
<path fill="#939393" opacity="1.00" d=" M 340.80 344.01 C 342.99 345.52 345.06 347.21 347.14 348.87 C 346.75 349.45 345.95 350.62 345.55 351.21 C 343.56 349.10 341.85 346.73 340.80 344.01 Z" />
<path fill="#393939" opacity="1.00" d=" M 167.99 350.17 C 169.75 348.90 170.56 346.76 171.66 344.96 C 169.46 356.78 174.08 368.45 178.63 379.15 C 176.11 376.16 174.38 372.65 172.81 369.10 C 167.45 367.71 161.94 366.01 156.36 367.17 C 151.25 368.22 146.09 367.49 141.00 366.93 C 136.02 368.28 130.92 369.30 125.72 368.68 C 128.89 368.18 132.10 367.98 135.27 367.44 C 137.51 366.77 139.61 365.53 141.97 365.31 C 144.02 365.73 145.90 366.86 148.04 366.86 C 155.89 366.80 163.57 365.00 171.26 363.59 C 170.46 359.45 170.05 355.26 169.37 351.10 C 165.07 352.92 160.51 353.87 155.85 353.85 C 159.08 351.57 162.14 349.03 164.63 345.93 C 163.39 348.16 162.07 350.35 160.80 352.57 C 163.22 351.88 165.75 351.38 167.99 350.17 M 165.65 366.03 C 167.87 366.91 170.15 367.64 172.40 368.44 C 172.34 367.47 172.22 365.52 172.17 364.55 C 169.88 364.47 167.67 364.96 165.65 366.03 Z" />
<path fill="#f9f9f9" opacity="1.00" d=" M 277.35 350.51 C 277.35 349.08 277.31 347.65 277.28 346.22 C 279.40 349.25 282.77 351.65 283.28 355.55 C 282.15 356.26 281.01 356.95 279.88 357.64 C 279.20 358.00 278.52 358.36 277.84 358.73 C 277.50 356.00 277.35 353.26 277.35 350.51 Z" />
<path fill="#373737" opacity="1.00" d=" M 355.63 357.46 C 358.93 353.22 363.05 349.69 367.88 347.31 C 363.92 350.85 360.19 354.66 355.63 357.46 Z" />
<path fill="#393939" opacity="1.00" d=" M 399.59 353.83 C 400.91 357.48 400.80 361.38 400.40 365.19 C 405.08 365.61 409.81 366.10 414.25 367.75 C 418.80 369.73 423.70 367.17 428.41 368.34 C 427.31 369.30 426.28 370.32 425.28 371.38 C 424.55 370.68 423.82 369.99 423.11 369.30 C 418.22 371.72 413.35 368.09 408.47 367.51 C 401.15 366.59 393.71 366.04 386.34 366.65 C 383.83 364.05 381.58 361.19 380.11 357.87 C 382.23 360.14 384.45 362.35 386.05 365.04 C 390.39 365.09 394.73 365.02 399.08 365.13 C 399.18 361.36 399.34 357.59 399.59 353.83 Z" />
<path fill="#393939" opacity="1.00" d=" M 474.40 355.51 C 478.55 354.89 483.66 352.55 487.21 355.89 C 489.03 355.61 490.86 355.16 492.72 355.30 C 494.71 356.18 496.09 357.96 497.79 359.27 C 501.39 362.30 506.85 362.31 509.94 366.03 C 506.44 364.49 502.84 363.17 499.44 361.44 C 496.71 360.04 494.78 357.47 492.00 356.17 C 490.28 356.40 488.62 356.91 486.95 357.33 C 487.86 361.55 489.11 365.72 491.27 369.49 C 490.46 369.34 489.66 369.19 488.88 369.03 C 488.98 367.85 488.68 366.76 488.00 365.78 C 486.28 362.58 485.45 359.02 484.80 355.48 C 481.41 356.79 477.64 357.67 474.40 355.51 Z" />
<path fill="#777777" opacity="1.00" d=" M 285.58 355.04 C 288.45 355.18 291.87 355.00 293.76 357.61 C 290.86 357.41 287.82 357.09 285.58 355.04 Z" />
<path fill="#fafafa" opacity="1.00" d=" M 486.95 357.33 C 488.62 356.91 490.28 356.40 492.00 356.17 C 494.78 357.47 496.71 360.04 499.44 361.44 C 502.84 363.17 506.44 364.49 509.94 366.03 C 510.25 366.89 510.58 367.75 510.91 368.62 C 504.35 368.66 497.82 370.34 491.27 369.49 C 489.11 365.72 487.86 361.55 486.95 357.33 Z" />
<path fill="#393939" opacity="1.00" d=" M 350.99 357.66 C 351.48 358.87 352.00 360.06 352.55 361.25 C 352.17 363.82 351.95 366.41 351.70 369.00 C 351.21 367.93 350.73 366.86 350.25 365.79 C 349.30 366.34 348.36 366.90 347.42 367.46 C 347.57 367.08 347.89 366.31 348.05 365.92 C 349.90 363.54 351.93 360.87 350.99 357.66 Z" />
<path fill="#373737" opacity="1.00" d=" M 304.03 360.95 C 312.07 364.23 318.42 370.43 324.36 376.58 C 327.53 379.53 327.31 384.09 327.89 388.02 C 332.04 384.97 334.80 380.50 338.87 377.38 C 337.22 379.93 335.21 382.20 333.31 384.56 C 336.30 384.21 339.28 383.72 342.28 383.38 C 338.53 385.11 334.25 385.45 330.71 387.66 C 329.03 388.98 326.91 388.20 325.01 388.03 C 326.38 385.32 327.38 381.54 324.93 379.12 C 319.10 371.89 311.69 366.13 304.03 360.95 Z" />
<path fill="#393939" opacity="1.00" d=" M 361.03 365.98 C 363.35 364.09 365.66 362.18 368.07 360.41 C 368.51 360.77 369.39 361.47 369.83 361.83 C 366.85 363.11 363.94 364.56 361.03 365.98 Z" />
<path fill="#373737" opacity="1.00" d=" M 180.93 379.56 C 179.34 373.75 177.70 367.72 179.10 361.70 C 179.71 366.42 179.17 371.73 182.21 375.74 C 185.80 380.47 190.29 384.56 195.33 387.70 C 200.11 390.53 205.27 393.33 210.98 393.30 C 213.18 393.55 215.08 394.87 217.06 395.79 C 212.79 395.43 208.39 395.26 204.39 393.56 C 201.55 392.64 198.99 390.85 196.06 390.26 C 190.65 391.28 185.09 391.59 179.62 390.77 C 184.57 390.50 189.52 390.09 194.42 389.28 C 190.26 385.80 186.08 382.32 182.43 378.30 C 182.05 378.62 181.30 379.24 180.93 379.56 Z" />
<path fill="#373737" opacity="1.00" d=" M 112.74 371.72 C 116.01 369.73 117.00 365.73 118.81 362.59 C 120.11 363.45 121.41 364.32 122.70 365.20 C 122.24 366.00 121.79 366.80 121.35 367.62 C 120.59 369.42 119.53 371.18 119.28 373.16 C 121.23 372.79 121.87 370.59 122.92 369.17 C 122.85 369.95 122.70 371.51 122.63 372.28 C 124.64 372.09 126.64 371.88 128.66 371.76 C 126.40 372.52 124.10 373.15 121.81 373.80 C 122.16 374.91 122.51 376.01 122.86 377.13 C 125.00 377.24 127.15 377.37 129.29 377.56 C 127.29 378.13 125.27 378.62 123.27 379.14 C 123.99 381.59 125.77 383.27 128.11 384.18 C 126.83 383.96 125.54 383.75 124.26 383.54 C 120.89 382.92 117.47 382.69 114.06 382.54 C 112.66 384.24 111.17 385.86 109.59 387.40 C 109.76 383.82 108.21 380.78 106.12 378.01 C 107.56 375.24 110.22 373.44 112.74 371.72 M 118.93 364.57 C 117.58 366.75 116.63 369.14 115.73 371.54 C 119.51 371.85 120.08 367.31 121.47 364.77 C 120.84 364.72 119.57 364.62 118.93 364.57 M 115.10 372.05 C 114.06 375.48 111.58 378.56 111.68 382.26 C 113.70 379.20 115.51 376.00 117.45 372.89 C 116.86 372.68 115.69 372.26 115.10 372.05 M 107.11 378.10 C 108.04 379.06 108.99 380.02 109.95 380.97 C 111.16 378.21 112.43 375.49 113.42 372.64 C 110.99 374.05 108.96 376.00 107.11 378.10 M 118.27 373.33 C 117.11 375.99 115.81 378.58 114.59 381.21 C 117.40 381.63 120.17 382.24 122.96 382.80 C 122.10 379.36 122.46 374.58 118.27 373.33 M 110.01 383.11 C 109.57 384.50 110.05 384.96 111.46 384.47 C 111.91 383.07 111.43 382.61 110.01 383.11 Z" />
<path fill="#f9f9f9" opacity="1.00" d=" M 118.93 364.57 C 119.57 364.62 120.84 364.72 121.47 364.77 C 120.08 367.31 119.51 371.85 115.73 371.54 C 116.63 369.14 117.58 366.75 118.93 364.57 Z" />
<path fill="#c7c7c7" opacity="1.00" d=" M 165.65 366.03 C 167.67 364.96 169.88 364.47 172.17 364.55 C 172.22 365.52 172.34 367.47 172.40 368.44 C 170.15 367.64 167.87 366.91 165.65 366.03 Z" />
<path fill="#393939" opacity="1.00" d=" M 480.57 366.12 C 480.95 367.52 481.33 368.91 481.71 370.31 C 485.23 370.51 488.71 371.05 492.19 371.60 C 487.90 373.29 483.22 371.37 478.87 372.72 C 475.55 373.65 472.10 374.05 468.66 373.80 C 470.94 373.35 473.24 373.03 475.52 372.50 C 467.89 371.71 460.07 372.30 452.73 374.55 C 450.97 375.17 449.32 374.15 447.77 373.48 C 452.56 373.16 457.20 371.90 461.94 371.26 C 467.89 370.42 473.93 370.30 479.93 370.57 C 480.14 369.08 480.35 367.60 480.57 366.12 Z" />
<path fill="#c7c7c7" opacity="1.00" d=" M 488.88 369.03 C 487.14 369.11 486.27 366.50 488.00 365.78 C 488.68 366.76 488.98 367.85 488.88 369.03 Z" />
<path fill="#c7c7c7" opacity="1.00" d=" M 121.35 367.62 C 125.98 367.12 130.63 367.16 135.27 367.44 C 132.10 367.98 128.89 368.18 125.72 368.68 C 130.92 369.30 136.02 368.28 141.00 366.93 C 146.09 367.49 151.25 368.22 156.36 367.17 C 161.94 366.01 167.45 367.71 172.81 369.10 C 174.38 372.65 176.11 376.16 178.63 379.15 C 179.25 380.00 179.90 380.85 180.55 381.70 C 180.97 382.30 181.83 383.49 182.25 384.08 C 179.78 385.85 176.83 385.97 173.96 385.35 C 174.94 384.51 175.92 383.69 176.90 382.88 C 166.77 384.19 156.55 384.07 146.37 384.46 C 142.36 384.57 138.46 383.23 134.45 383.48 C 131.35 383.66 128.27 384.27 125.31 385.21 L 124.32 385.50 L 124.26 383.54 C 125.54 383.75 126.83 383.96 128.11 384.18 C 125.77 383.27 123.99 381.59 123.27 379.14 C 125.27 378.62 127.29 378.13 129.29 377.56 C 127.15 377.37 125.00 377.24 122.86 377.13 C 122.51 376.01 122.16 374.91 121.81 373.80 C 124.10 373.15 126.40 372.52 128.66 371.76 C 126.64 371.88 124.64 372.09 122.63 372.28 C 122.70 371.51 122.85 369.95 122.92 369.17 C 121.87 370.59 121.23 372.79 119.28 373.16 C 119.53 371.18 120.59 369.42 121.35 367.62 M 146.92 370.16 C 152.54 373.11 158.90 374.40 165.21 374.66 C 159.51 371.93 153.11 371.08 146.92 370.16 Z" />
<path fill="#373737" opacity="1.00" d=" M 227.96 368.06 C 231.15 374.47 235.22 380.42 237.96 387.04 C 233.55 381.37 230.44 374.77 227.96 368.06 Z" />
<path fill="#fbfbfb" opacity="1.00" d=" M 428.41 368.34 C 429.44 367.52 431.41 367.52 432.07 368.82 C 433.96 371.58 435.41 374.79 438.22 376.79 C 440.95 378.14 443.83 379.21 446.40 380.90 C 437.95 381.78 429.43 380.74 420.96 381.31 C 421.05 379.62 421.06 377.93 421.33 376.27 C 422.36 374.43 423.88 372.94 425.28 371.38 C 426.28 370.32 427.31 369.30 428.41 368.34 Z" />
<path fill="#818181" opacity="1.00" d=" M 300.40 369.22 C 302.88 369.64 305.32 370.45 307.19 372.22 C 304.54 372.22 301.97 371.49 300.40 369.22 Z" />
<path fill="#6d6d6d" opacity="1.00" d=" M 146.92 370.16 C 153.11 371.08 159.51 371.93 165.21 374.66 C 158.90 374.40 152.54 373.11 146.92 370.16 Z" />
<path fill="#f9f9f9" opacity="1.00" d=" M 254.61 371.00 C 257.29 371.12 260.08 371.23 262.56 372.40 C 264.44 373.02 264.41 375.25 265.06 376.80 C 261.55 375.03 256.34 375.05 254.61 371.00 Z" />
<path fill="#fdfdfd" opacity="1.00" d=" M 115.10 372.05 C 115.69 372.26 116.86 372.68 117.45 372.89 C 115.51 376.00 113.70 379.20 111.68 382.26 C 111.58 378.56 114.06 375.48 115.10 372.05 Z" />
<path fill="#fafafa" opacity="1.00" d=" M 107.11 378.10 C 108.96 376.00 110.99 374.05 113.42 372.64 C 112.43 375.49 111.16 378.21 109.95 380.97 C 108.99 380.02 108.04 379.06 107.11 378.10 Z" />
<path fill="#fafafa" opacity="1.00" d=" M 118.27 373.33 C 122.46 374.58 122.10 379.36 122.96 382.80 C 120.17 382.24 117.40 381.63 114.59 381.21 C 115.81 378.58 117.11 375.99 118.27 373.33 Z" />
<path fill="#979797" opacity="1.00" d=" M 258.07 375.69 C 260.34 376.12 262.29 377.28 263.82 378.99 C 263.42 379.96 263.03 380.94 262.64 381.93 C 261.01 379.93 259.45 377.87 258.07 375.69 Z" />
<path fill="#393939" opacity="1.00" d=" M 199.89 378.98 C 201.63 381.31 203.05 383.91 205.14 385.96 C 207.83 387.21 210.92 387.08 213.82 387.46 C 220.17 387.88 226.28 389.77 232.43 391.28 C 230.01 388.77 227.48 386.37 225.09 383.84 C 228.80 386.08 232.15 388.82 235.55 391.50 C 238.28 393.70 241.77 394.47 245.03 395.53 C 246.07 395.83 247.10 396.16 248.13 396.51 C 240.26 396.56 233.42 391.22 225.51 391.58 C 221.24 392.29 216.70 392.93 212.50 391.52 C 211.63 391.12 210.78 390.71 209.93 390.30 C 214.79 391.12 219.75 391.76 224.66 390.89 C 218.74 388.62 212.38 388.49 206.18 387.59 C 207.13 389.12 208.08 390.65 209.00 392.20 C 204.31 389.15 201.25 384.35 199.89 378.98 Z" />
<path fill="#999999" opacity="1.00" d=" M 255.71 379.98 C 258.14 381.00 260.56 382.10 262.69 383.67 C 259.58 384.50 256.44 385.26 253.37 386.25 C 254.16 384.16 254.95 382.07 255.71 379.98 Z" />
<path fill="#7f7f7f" opacity="1.00" d=" M 180.55 381.70 C 181.22 381.50 182.57 381.11 183.24 380.91 C 184.16 383.43 185.12 385.94 186.08 388.46 C 184.74 387.46 183.40 386.45 182.08 385.45 C 180.45 387.04 178.79 388.60 177.32 390.34 C 174.43 390.16 171.55 389.99 168.68 389.63 C 171.56 388.86 174.37 387.82 177.32 387.27 C 173.35 386.94 169.35 387.03 165.40 386.44 C 158.89 385.39 152.27 385.86 145.73 386.27 C 141.76 386.57 137.99 384.38 134.01 385.07 C 130.83 385.50 127.65 386.16 124.42 386.02 L 125.31 385.21 C 128.27 384.27 131.35 383.66 134.45 383.48 C 138.46 383.23 142.36 384.57 146.37 384.46 C 156.55 384.07 166.77 384.19 176.90 382.88 C 175.92 383.69 174.94 384.51 173.96 385.35 C 176.83 385.97 179.78 385.85 182.25 384.08 C 181.83 383.49 180.97 382.30 180.55 381.70 Z" />
<path fill="#efefef" opacity="1.00" d=" M 110.01 383.11 C 111.43 382.61 111.91 383.07 111.46 384.47 C 110.05 384.96 109.57 384.50 110.01 383.11 Z" />
<path fill="#393939" opacity="1.00" d=" M 398.94 384.30 C 404.82 383.80 410.73 383.47 416.64 383.44 C 408.46 387.18 398.64 383.21 390.82 388.06 C 386.94 389.01 383.00 386.64 379.04 386.69 C 369.58 386.67 360.02 388.37 350.62 386.85 C 358.71 385.91 366.87 385.97 374.98 385.26 C 379.72 384.78 384.26 386.55 388.93 386.86 C 392.32 386.23 395.45 384.52 398.94 384.30 Z" />
<path fill="#fbfbfb" opacity="1.00" d=" M 253.37 386.25 C 256.44 385.26 259.58 384.50 262.69 383.67 C 262.78 386.78 263.22 389.86 263.89 392.90 C 258.67 391.87 253.32 391.81 248.03 392.35 C 249.85 390.38 251.01 387.59 253.37 386.25 Z" />
</svg>
