<?xml version="1.0" encoding="utf-8"?>
<svg xmlns="http://www.w3.org/2000/svg" style="margin:auto;background:rgba(NaN, NaN, NaN, 0);display:block;" width="280" height="100" preserveAspectRatio="xMidYMid">
<style type="text/css">
  text {
    text-anchor: middle; font-size: 25px; opacity: 0;
  }
</style>
<g style="transform-origin: 140px 50px; transform: scale(0.3125);">
<g transform="translate(140,50)">
  <g transform="translate(0,0)"><g class="path" style="transform: translate(0px, -10px); transform-origin: -135.16px -5.37862px; animation: 1s linear -0.6s infinite normal forwards running wander-v-4b52e662-8055-4382-be74-d1c4bc89dd03;"><path d="M7.36 0L7.36-52.56L13.28-52.56L13.28-5.04L36.48-5.04L36.48 0L7.36 0" fill="#53ab8b" stroke="none" stroke-width="none" transform="translate(-157.08001708984375,20.901377896395598)" style="fill: #53ab8b;"></path></g><g class="path" style="transform: translate(0px, -10px); transform-origin: -97px 1.50138px; animation: 1s linear -0.54s infinite normal forwards running wander-v-4b52e662-8055-4382-be74-d1c4bc89dd03;"><path d="M60.08 0.96L60.08 0.96Q55.28 0.96 51.20-1.48L51.20-1.48L51.20-1.48Q47.12-3.92 44.68-8.52L44.68-8.52L44.68-8.52Q42.24-13.12 42.24-19.36L42.24-19.36L42.24-19.36Q42.24-25.60 44.68-30.24L44.68-30.24L44.68-30.24Q47.12-34.88 51.20-37.32L51.20-37.32L51.20-37.32Q55.28-39.76 60.08-39.76L60.08-39.76L60.08-39.76Q64.88-39.76 68.96-37.32L68.96-37.32L68.96-37.32Q73.04-34.88 75.48-30.24L75.48-30.24L75.48-30.24Q77.92-25.60 77.92-19.36L77.92-19.36L77.92-19.36Q77.92-13.12 75.48-8.52L75.48-8.52L75.48-8.52Q73.04-3.92 68.96-1.48L68.96-1.48L68.96-1.48Q64.88 0.96 60.08 0.96L60.08 0.96zM60.08-3.92L60.08-3.92Q63.52-3.92 66.20-5.84L66.20-5.84L66.20-5.84Q68.88-7.76 70.40-11.28L70.40-11.28L70.40-11.28Q71.92-14.80 71.92-19.36L71.92-19.36L71.92-19.36Q71.92-23.92 70.40-27.44L70.40-27.44L70.40-27.44Q68.88-30.96 66.20-32.92L66.20-32.92L66.20-32.92Q63.52-34.88 60.08-34.88L60.08-34.88L60.08-34.88Q56.64-34.88 53.96-32.92L53.96-32.92L53.96-32.92Q51.28-30.96 49.80-27.44L49.80-27.44L49.80-27.44Q48.32-23.92 48.32-19.36L48.32-19.36L48.32-19.36Q48.32-12.40 51.60-8.16L51.60-8.16L51.60-8.16Q54.88-3.92 60.08-3.92L60.08-3.92" fill="#53ab8b" stroke="none" stroke-width="none" transform="translate(-157.08001708984375,20.901377896395598)" style="fill: #53ab8b;"></path></g><g class="path" style="transform: translate(0px, -10px); transform-origin: -56.2px 1.50138px; animation: 1s linear -0.48s infinite normal forwards running wander-v-4b52e662-8055-4382-be74-d1c4bc89dd03;"><path d="M97.28 0.96L97.28 0.96Q92.32 0.96 89.12-1.92L89.12-1.92L89.12-1.92Q85.92-4.80 85.92-10L85.92-10L85.92-10Q85.92-16.32 91.68-19.72L91.68-19.72L91.68-19.72Q97.44-23.12 110.08-24.48L110.08-24.48L110.08-24.48Q110.08-29.04 108.20-31.96L108.20-31.96L108.20-31.96Q106.32-34.88 101.76-34.88L101.76-34.88L101.76-34.88Q96.24-34.88 90-30.64L90-30.64L87.68-34.64L87.68-34.64Q95.36-39.76 102.72-39.76L102.72-39.76L102.72-39.76Q109.44-39.76 112.64-35.56L112.64-35.56L112.64-35.56Q115.84-31.36 115.84-24L115.84-24L115.84 0L111.04 0L110.56-4.72L110.32-4.72L110.32-4.72Q103.44 0.96 97.28 0.96L97.28 0.96zM98.80-3.76L98.80-3.76Q101.60-3.76 104.28-5.08L104.28-5.08L104.28-5.08Q106.96-6.40 110.08-9.20L110.08-9.20L110.08-20.56L110.08-20.56Q100.08-19.36 95.88-16.88L95.88-16.88L95.88-16.88Q91.68-14.40 91.68-10.32L91.68-10.32L91.68-10.32Q91.68-7.04 93.68-5.40L93.68-5.40L93.68-5.40Q95.68-3.76 98.80-3.76L98.80-3.76" fill="#53ab8b" stroke="none" stroke-width="none" transform="translate(-157.08001708984375,20.901377896395598)" style="fill: #53ab8b;"></path></g><g class="path" style="transform: translate(0px, -10px); transform-origin: -14.68px -7.17862px; animation: 1s linear -0.42s infinite normal forwards running wander-v-4b52e662-8055-4382-be74-d1c4bc89dd03;"><path d="M141.60 0.96L141.60 0.96Q134.24 0.96 129.96-4.40L129.96-4.40L129.96-4.40Q125.68-9.76 125.68-19.36L125.68-19.36L125.68-19.36Q125.68-25.44 128-30.08L128-30.08L128-30.08Q130.32-34.72 134.20-37.24L134.20-37.24L134.20-37.24Q138.08-39.76 142.56-39.76L142.56-39.76L142.56-39.76Q145.68-39.76 148.16-38.64L148.16-38.64L148.16-38.64Q150.64-37.52 153.60-35.20L153.60-35.20L153.36-41.92L153.36-57.12L159.12-57.12L159.12 0L154.32 0L153.84-4.72L153.60-4.72L153.60-4.72Q151.12-2.16 148.04-0.60L148.04-0.60L148.04-0.60Q144.96 0.96 141.60 0.96L141.60 0.96zM142.88-4L142.88-4Q145.68-4 148.20-5.36L148.20-5.36L148.20-5.36Q150.72-6.72 153.36-9.52L153.36-9.52L153.36-30.56L153.36-30.56Q150.80-32.80 148.40-33.80L148.40-33.80L148.40-33.80Q146-34.80 143.44-34.80L143.44-34.80L143.44-34.80Q140.16-34.80 137.48-32.80L137.48-32.80L137.48-32.80Q134.80-30.80 133.24-27.28L133.24-27.28L133.24-27.28Q131.68-23.76 131.68-19.36L131.68-19.36L131.68-19.36Q131.68-12.16 134.60-8.08L134.60-8.08L134.60-8.08Q137.52-4 142.88-4L142.88-4" fill="#53ab8b" stroke="none" stroke-width="none" transform="translate(-157.08001708984375,20.901377896395598)" style="fill: #53ab8b;"></path></g><g class="path" style="transform: translate(0px, -10px); transform-origin: 18.52px 1.50138px; animation: 1s linear -0.36s infinite normal forwards running wander-v-4b52e662-8055-4382-be74-d1c4bc89dd03;"><path d="M172.72 0L172.72-38.80L178.48-38.80L178.48 0L172.72 0" fill="#53ab8b" stroke="none" stroke-width="none" transform="translate(-157.08001708984375,20.901377896395598)" style="fill: #53ab8b;"></path></g><g class="path" style="transform: translate(0px, -10px); transform-origin: 18.6px -30.2186px; animation: 1s linear -0.3s infinite normal forwards running wander-v-4b52e662-8055-4382-be74-d1c4bc89dd03;"><path d="M175.68-47.12L175.68-47.12Q173.92-47.12 172.80-48.24L172.80-48.24L172.80-48.24Q171.68-49.36 171.68-51.20L171.68-51.20L171.68-51.20Q171.68-52.96 172.80-54.04L172.80-54.04L172.80-54.04Q173.92-55.12 175.68-55.12L175.68-55.12L175.68-55.12Q177.44-55.12 178.56-54.04L178.56-54.04L178.56-54.04Q179.68-52.96 179.68-51.20L179.68-51.20L179.68-51.20Q179.68-49.36 178.56-48.24L178.56-48.24L178.56-48.24Q177.44-47.12 175.68-47.12L175.68-47.12" fill="#53ab8b" stroke="none" stroke-width="none" transform="translate(-157.08001708984375,20.901377896395598)" style="fill: #53ab8b;"></path></g><g class="path" style="transform: translate(0px, -10px); transform-origin: 50.2px 1.02138px; animation: 1s linear -0.24s infinite normal forwards running wander-v-4b52e662-8055-4382-be74-d1c4bc89dd03;"><path d="M192.08 0L192.08-38.80L196.88-38.80L197.36-33.04L197.60-33.04L197.60-33.04Q200.80-36.24 203.88-38L203.88-38L203.88-38Q206.96-39.76 210.64-39.76L210.64-39.76L210.64-39.76Q216.72-39.76 219.60-35.96L219.60-35.96L219.60-35.96Q222.48-32.16 222.48-24.64L222.48-24.64L222.48 0L216.64 0L216.64-23.92L216.64-23.92Q216.64-29.52 214.84-32.08L214.84-32.08L214.84-32.08Q213.04-34.64 208.96-34.64L208.96-34.64L208.96-34.64Q206.08-34.64 203.60-33.16L203.60-33.16L203.60-33.16Q201.12-31.68 197.84-28.40L197.84-28.40L197.84 0L192.08 0" fill="#53ab8b" stroke="none" stroke-width="none" transform="translate(-157.08001708984375,20.901377896395598)" style="fill: #53ab8b;"></path></g><g class="path" style="transform: translate(0px, -10px); transform-origin: 93.04px 10.0614px; animation: 1s linear -0.18s infinite normal forwards running wander-v-4b52e662-8055-4382-be74-d1c4bc89dd03;"><path d="M248.48 18.08L248.48 18.08Q241.20 18.08 236.84 15.28L236.84 15.28L236.84 15.28Q232.48 12.48 232.48 7.60L232.48 7.60L232.48 7.60Q232.48 5.12 233.96 2.80L233.96 2.80L233.96 2.80Q235.44 0.48 238.16-1.36L238.16-1.36L238.16-1.68L238.16-1.68Q236.64-2.64 235.68-4.24L235.68-4.24L235.68-4.24Q234.72-5.84 234.72-8L234.72-8L234.72-8Q234.72-10.24 235.96-12.12L235.96-12.12L235.96-12.12Q237.20-14 238.96-15.20L238.96-15.20L238.96-15.52L238.96-15.52Q236.88-17.20 235.44-19.92L235.44-19.92L235.44-19.92Q234.00-22.64 234.00-25.92L234.00-25.92L234.00-25.92Q234.00-30 235.92-33.16L235.92-33.16L235.92-33.16Q237.84-36.32 241.12-38.04L241.12-38.04L241.12-38.04Q244.40-39.76 248.32-39.76L248.32-39.76L248.32-39.76Q250.96-39.76 253.68-38.80L253.68-38.80L267.12-38.80L267.12-34.24L258.88-34.24L258.88-34.24Q260.40-32.80 261.36-30.56L261.36-30.56L261.36-30.56Q262.32-28.32 262.32-25.84L262.32-25.84L262.32-25.84Q262.32-21.84 260.48-18.76L260.48-18.76L260.48-18.76Q258.64-15.68 255.44-14L255.44-14L255.44-14Q252.24-12.32 248.32-12.32L248.32-12.32L248.32-12.32Q245.12-12.32 242.40-13.68L242.40-13.68L242.40-13.68Q241.12-12.64 240.44-11.56L240.44-11.56L240.44-11.56Q239.76-10.48 239.76-8.88L239.76-8.88L239.76-8.88Q239.76-6.80 241.32-5.64L241.32-5.64L241.32-5.64Q242.88-4.48 246.64-4.48L246.64-4.48L254.40-4.48L254.40-4.48Q261.20-4.48 264.48-2.24L264.48-2.24L264.48-2.24Q267.76 0 267.76 4.72L267.76 4.72L267.76 4.72Q267.76 8.24 265.36 11.32L265.36 11.32L265.36 11.32Q262.96 14.40 258.56 16.24L258.56 16.24L258.56 16.24Q254.16 18.08 248.48 18.08L248.48 18.08zM248.32-16.32L248.32-16.32Q251.92-16.32 254.44-19L254.44-19L254.44-19Q256.96-21.68 256.96-25.92L256.96-25.92L256.96-25.92Q256.96-30.24 254.48-32.84L254.48-32.84L254.48-32.84Q252.00-35.44 248.32-35.44L248.32-35.44L248.32-35.44Q244.64-35.44 242.12-32.84L242.12-32.84L242.12-32.84Q239.60-30.24 239.60-25.92L239.60-25.92L239.60-25.92Q239.60-21.68 242.12-19L242.12-19L242.12-19Q244.64-16.32 248.32-16.32L248.32-16.32zM249.28 13.92L249.28 13.92Q252.96 13.92 255.88 12.76L255.88 12.76L255.88 12.76Q258.80 11.60 260.40 9.64L260.40 9.64L260.40 9.64Q262 7.68 262 5.52L262 5.52L262 5.52Q262 2.80 260 1.64L260 1.64L260 1.64Q258 0.48 253.92 0.48L253.92 0.48L246.80 0.48L246.80 0.48Q244.32 0.48 241.84-0.16L241.84-0.16L241.84-0.16Q237.60 2.80 237.60 6.80L237.60 6.80L237.60 6.80Q237.60 10.08 240.72 12L240.72 12L240.72 12Q243.84 13.92 249.28 13.92L249.28 13.92" fill="#53ab8b" stroke="none" stroke-width="none" transform="translate(-157.08001708984375,20.901377896395598)" style="fill: #53ab8b;"></path></g><g class="path" style="transform: translate(0px, -10px); transform-origin: 121.32px 17.1814px; animation: 1s linear -0.12s infinite normal forwards running wander-v-4b52e662-8055-4382-be74-d1c4bc89dd03;"><path d="M278.40 0.96L278.40 0.96Q276.56 0.96 275.28-0.36L275.28-0.36L275.28-0.36Q274-1.68 274-3.68L274-3.68L274-3.68Q274-5.76 275.28-7.08L275.28-7.08L275.28-7.08Q276.56-8.40 278.40-8.40L278.40-8.40L278.40-8.40Q280.24-8.40 281.52-7.08L281.52-7.08L281.52-7.08Q282.80-5.76 282.80-3.68L282.80-3.68L282.80-3.68Q282.80-1.68 281.52-0.36L281.52-0.36L281.52-0.36Q280.24 0.96 278.40 0.96L278.40 0.96" fill="#53ab8b" stroke="none" stroke-width="none" transform="translate(-157.08001708984375,20.901377896395598)" style="fill: #53ab8b;"></path></g><g class="path" style="transform: translate(0px, -10px); transform-origin: 140.68px 17.1814px; animation: 1s linear -0.06s infinite normal forwards running wander-v-4b52e662-8055-4382-be74-d1c4bc89dd03;"><path d="M297.76 0.96L297.76 0.96Q295.92 0.96 294.64-0.36L294.64-0.36L294.64-0.36Q293.36-1.68 293.36-3.68L293.36-3.68L293.36-3.68Q293.36-5.76 294.64-7.08L294.64-7.08L294.64-7.08Q295.92-8.40 297.76-8.40L297.76-8.40L297.76-8.40Q299.60-8.40 300.88-7.08L300.88-7.08L300.88-7.08Q302.16-5.76 302.16-3.68L302.16-3.68L302.16-3.68Q302.16-1.68 300.88-0.36L300.88-0.36L300.88-0.36Q299.60 0.96 297.76 0.96L297.76 0.96" fill="#53ab8b" stroke="none" stroke-width="none" transform="translate(-157.08001708984375,20.901377896395598)" style="fill: #53ab8b;"></path></g><g class="path" style="transform: translate(0px, -10px); transform-origin: 160.04px 17.1814px; animation: 1s linear 0s infinite normal forwards running wander-v-4b52e662-8055-4382-be74-d1c4bc89dd03;"><path d="M317.12 0.96L317.12 0.96Q315.28 0.96 314.00-0.36L314.00-0.36L314.00-0.36Q312.72-1.68 312.72-3.68L312.72-3.68L312.72-3.68Q312.72-5.76 314.00-7.08L314.00-7.08L314.00-7.08Q315.28-8.40 317.12-8.40L317.12-8.40L317.12-8.40Q318.96-8.40 320.24-7.08L320.24-7.08L320.24-7.08Q321.52-5.76 321.52-3.68L321.52-3.68L321.52-3.68Q321.52-1.68 320.24-0.36L320.24-0.36L320.24-0.36Q318.96 0.96 317.12 0.96L317.12 0.96" fill="#53ab8b" stroke="none" stroke-width="none" transform="translate(-157.08001708984375,20.901377896395598)" style="fill: #53ab8b;"></path></g></g>
</g>
</g>
<style id="wander-v-4b52e662-8055-4382-be74-d1c4bc89dd03" data-anikit="">@keyframes wander-v-4b52e662-8055-4382-be74-d1c4bc89dd03
{
  0% {
    animation-timing-function: cubic-bezier(0.7806,0.0715,0.8998,0.731);
    transform: translate(0,-10px);
  }
  17.5% {
    animation-timing-function: cubic-bezier(0.484,0.3308,0.6853,0.6667);
    transform: translate(0,-6.18px);
  }
  27.6% {
    animation-timing-function: cubic-bezier(0.2459,0.3343,0.4923,0.6717);
    transform: translate(0,2.48px);
  }
  35.1% {
    animation-timing-function: cubic-bezier(0.1317,0.3401,0.311,0.9176);
    transform: translate(0,7.49px);
  }
  50.1% {
    animation-timing-function: cubic-bezier(0.7773,0.0708,0.9008,0.735);
    transform: translate(0,10px);
  }
  67.6% {
    animation-timing-function: cubic-bezier(0.4888,0.331,0.6153,0.6674);
    transform: translate(0,6.16px);
  }
  80% {
    animation-timing-function: cubic-bezier(0.2539,0.3274,0.5671,0.676);
    transform: translate(0,-4.57px);
  }
  85% {
    animation-timing-function: cubic-bezier(0.1302,0.3349,0.3113,0.9183);
    transform: translate(0,-7.47px);
  }
  100% {
    transform: translate(0,-10px);
  }
}</style>
</svg>